<svg width="20" height="20" viewBox="0 0 12 12" fill="none" xmlns="http://www.w3.org/2000/svg">
    <mask id="path-1-inside-1_8_162" fill="white">
        <path d="M1.66525 3L1 3.591L6.25 9L11.5 3.591L10.8348 3L6.25 7.7235L1.66525 3Z"/>
    </mask>
    <path d="M1.66525 3L1 3.591L6.25 9L11.5 3.591L10.8348 3L6.25 7.7235L1.66525 3Z" fill="black"/>
    <path d="M1.66525 3L1.0011 2.2524L1.71641 1.61693L2.38282 2.30351L1.66525 3ZM1 3.591L0.282425 4.28748L-0.445483 3.53753L0.335845 2.8434L1 3.591ZM6.25 9L6.96758 9.69648L6.25 10.4358L5.53242 9.69648L6.25 9ZM11.5 3.591L12.1642 2.8434L12.9455 3.53753L12.2176 4.28748L11.5 3.591ZM10.8348 3L10.1172 2.30351L10.7836 1.61693L11.4989 2.2524L10.8348 3ZM6.25 7.7235L6.96757 8.41999L6.25 9.15927L5.53243 8.41999L6.25 7.7235ZM2.3294 3.7476L1.66416 4.3386L0.335845 2.8434L1.0011 2.2524L2.3294 3.7476ZM1.71758 2.89452L6.96758 8.30352L5.53242 9.69648L0.282425 4.28748L1.71758 2.89452ZM5.53242 8.30352L10.7824 2.89452L12.2176 4.28748L6.96758 9.69648L5.53242 8.30352ZM10.8358 4.3386L10.1706 3.7476L11.4989 2.2524L12.1642 2.8434L10.8358 4.3386ZM11.5523 3.69649L6.96757 8.41999L5.53243 7.02701L10.1172 2.30351L11.5523 3.69649ZM5.53243 8.41999L0.947682 3.69649L2.38282 2.30351L6.96757 7.02701L5.53243 8.41999Z" fill="white" mask="url(#path-1-inside-1_8_162)"/>
</svg>
