<svg width="12" height="12" viewBox="0 0 12 12" fill="none" xmlns="http://www.w3.org/2000/svg">
<g id="arrow-up-svgrepo-com 1">
<path id="Vector" d="M5.99747 10.7436C6.25864 10.7436 6.44946 10.5628 6.44946 10.3016V3.68722L6.4093 2.61747L7.91097 4.26479L9.05605 5.38979C9.13641 5.47012 9.25695 5.51032 9.37247 5.51032C9.62359 5.51032 9.8094 5.31946 9.8094 5.07337C9.8094 4.95284 9.7642 4.84737 9.66878 4.74693L6.33396 1.40707C6.23854 1.30662 6.12302 1.25641 5.99747 1.25641C5.87693 1.25641 5.76141 1.30662 5.66599 1.40707L2.33117 4.74693C2.23574 4.84737 2.19055 4.95284 2.19055 5.07337C2.19055 5.31946 2.37636 5.51032 2.62247 5.51032C2.743 5.51032 2.86354 5.47012 2.94389 5.38979L4.08396 4.26479L5.59064 2.61243L5.55049 3.68722V10.3016C5.55049 10.5628 5.73629 10.7436 5.99747 10.7436Z" fill="#A90000"/>
</g>
</svg>
