<svg width="15" height="15" viewBox="0 0 15 15" fill="none" xmlns="http://www.w3.org/2000/svg">
    <g clip-path="url(#clip0_8_88)">
        <path d="M3.04688 11.25C3.30576 11.25 3.51562 11.0401 3.51562 10.7812C3.51562 10.5224 3.30576 10.3125 3.04688 10.3125C2.78799 10.3125 2.57812 10.5224 2.57812 10.7812C2.57812 11.0401 2.78799 11.25 3.04688 11.25Z" fill="#795142"/>
        <path d="M9.84375 10.0781H5.15625V11.4844H9.84375V10.0781Z" fill="#795142"/>
        <path d="M11.9531 11.25C12.212 11.25 12.4219 11.0401 12.4219 10.7812C12.4219 10.5224 12.212 10.3125 11.9531 10.3125C11.6942 10.3125 11.4844 10.5224 11.4844 10.7812C11.4844 11.0401 11.6942 11.25 11.9531 11.25Z" fill="#795142"/>
        <path d="M15 4.45289C15 4.32328 14.8952 4.21852 14.7656 4.21852H14.0625V2.34375C14.0625 1.0493 13.013 0 11.7188 0H3.28125C1.9868 0 0.9375 1.04953 0.9375 2.34375V4.21852H0.234375C0.104766 4.21852 0 4.32328 0 4.45289V6.56227C0 7.08 0.419766 7.5 0.9375 7.5V12.1875C0.9375 12.7057 1.3568 13.125 1.875 13.125V14.7656C1.875 14.8952 1.97977 15 2.10938 15H3.98438C4.11398 15 4.21875 14.8952 4.21875 14.7656V13.125H10.7812V14.7656C10.7812 14.8952 10.886 15 11.0156 15H12.8906C13.0202 15 13.125 14.8952 13.125 14.7656V13.125C13.6432 13.125 14.0625 12.7057 14.0625 12.1875V7.5C14.5802 7.5 15 7.08023 15 6.5625V4.45289ZM0.9375 7.03125C0.67875 7.03125 0.46875 6.82125 0.46875 6.5625V4.68727H0.9375V7.03125ZM6.5625 1.17188H8.4375C8.56711 1.17188 8.67188 1.27664 8.67188 1.40625C8.67188 1.53586 8.56711 1.64062 8.4375 1.64062H6.5625C6.43289 1.64062 6.32812 1.53586 6.32812 1.40625C6.32812 1.27664 6.43289 1.17188 6.5625 1.17188ZM3.75 14.5312H2.34375V13.125H3.75V14.5312ZM3.04688 11.7188C2.52914 11.7188 2.10938 11.299 2.10938 10.7812C2.10938 10.2635 2.52914 9.84375 3.04688 9.84375C3.56461 9.84375 3.98438 10.2635 3.98438 10.7812C3.98438 11.299 3.56461 11.7188 3.04688 11.7188ZM3.75 8.4375H2.34375V2.8125H7.26562V8.4375H6.5625C6.5625 7.66078 5.93297 7.03125 5.15625 7.03125C4.37953 7.03125 3.75 7.66078 3.75 8.4375ZM5.15625 7.5C5.67398 7.5 6.09375 7.91977 6.09375 8.4375H4.21875C4.21875 7.91977 4.63852 7.5 5.15625 7.5ZM10.3125 11.7188C10.3125 11.8484 10.2077 11.9531 10.0781 11.9531H4.92188C4.79227 11.9531 4.6875 11.8484 4.6875 11.7188V9.84375C4.6875 9.71414 4.79227 9.60938 4.92188 9.60938H10.0781C10.2077 9.60938 10.3125 9.71414 10.3125 9.84375V11.7188ZM7.73438 8.4375V2.8125H12.6562V8.4375H7.73438ZM12.6562 14.5312H11.25V13.125H12.6562V14.5312ZM11.9531 11.7188C11.4354 11.7188 11.0156 11.299 11.0156 10.7812C11.0156 10.2635 11.4354 9.84375 11.9531 9.84375C12.4709 9.84375 12.8906 10.2635 12.8906 10.7812C12.8906 11.299 12.4709 11.7188 11.9531 11.7188ZM14.5312 6.5625C14.5312 6.82125 14.3212 7.03125 14.0625 7.03125V4.68727H14.5312V6.5625Z" fill="#795142"/>
        <path d="M11.6501 3.35016C11.5584 3.25852 11.4103 3.25852 11.3187 3.35016C11.227 3.4418 11.227 3.58993 11.3187 3.68157L11.7874 4.15032C11.8331 4.19602 11.8931 4.21899 11.9531 4.21899C12.0131 4.21899 12.0731 4.19602 12.1188 4.15032C12.2105 4.05868 12.2105 3.91055 12.1188 3.81891L11.6501 3.35016Z" fill="#795142"/>
        <path d="M10.4782 3.34992C10.3866 3.25828 10.2384 3.25828 10.1468 3.34992C10.0552 3.44156 10.0552 3.58968 10.1468 3.68133L11.7874 5.32195C11.8331 5.36765 11.8931 5.39062 11.9531 5.39062C12.0131 5.39062 12.0731 5.36765 12.1188 5.32195C12.2105 5.23031 12.2105 5.08218 12.1188 4.99054L10.4782 3.34992Z" fill="#795142"/>
    </g>
    <defs>
        <clipPath id="clip0_8_88">
            <rect width="15" height="15" fill="white"/>
        </clipPath>
    </defs>
</svg>