<svg width="14" height="14" viewBox="0 0 14 14" fill="none" xmlns="http://www.w3.org/2000/svg">
<g id="top-speed-svgrepo-com 1">
<g id="&#240;&#159;&#148;&#141;-Product-Icons">
<g id="ic_fluent_top_speed_24_regular">
<path id="&#240;&#159;&#142;&#168;-Color" d="M5.86208 8.99552L9.51186 4.05123C9.63268 3.88754 9.85618 3.83888 10.0341 3.93752C10.1943 4.02629 10.2728 4.20958 10.2324 4.3833L10.2145 4.44071L7.95699 10.1568C7.712 10.7771 7.01051 11.0814 6.39017 10.8364C6.34148 10.8172 6.29409 10.7948 6.24831 10.7694C5.66482 10.446 5.454 9.71078 5.77743 9.12729L5.81762 9.06003L5.86208 8.99552ZM8.0792 7.46535L6.56606 9.51518L6.54273 9.5515C6.45358 9.71233 6.51168 9.91497 6.67251 10.0041L6.71159 10.0226C6.86537 10.0833 7.03726 10.0215 7.1193 9.88396L7.14317 9.83538L8.0792 7.46535ZM10.8556 4.32483C11.2957 4.68143 11.6941 5.10467 12.0352 5.59182C12.3412 6.02878 12.6358 6.55786 12.8052 6.99085C12.8932 7.21586 12.7822 7.46965 12.5572 7.55769C12.3322 7.64574 12.0784 7.53471 11.9903 7.30969C11.9336 7.16465 11.8579 7.00273 11.7703 6.83614L10.5747 7.52638C10.3655 7.6472 10.0979 7.5755 9.97708 7.36625C9.86634 7.17443 9.91735 6.93361 10.0878 6.80175L10.1372 6.76861L11.3145 6.08793L11.1801 5.90494C10.9912 5.65844 10.7845 5.43277 10.5631 5.22846L10.7849 4.66596C10.807 4.61 10.8238 4.55313 10.8355 4.49594L10.8494 4.40999L10.8556 4.32483ZM9.32224 3.4141C9.23529 3.46459 9.15516 3.52881 9.08507 3.6058L9.01845 3.68701L8.70289 4.11455C8.29353 3.97226 7.86841 3.88019 7.43766 3.84013L7.43752 5.39929C7.43752 5.64091 7.24164 5.83679 7.00002 5.83679C6.77853 5.83679 6.59548 5.6722 6.56651 5.45866L6.56252 5.39929L6.56229 3.83054C5.6309 3.89677 4.7049 4.20833 3.88438 4.78287C3.40841 5.11615 2.99341 5.55418 2.64845 6.06895L3.86307 6.77017C4.07232 6.89098 4.14402 7.15855 4.02321 7.3678C3.91246 7.55962 3.6784 7.63585 3.47898 7.55416L3.42557 7.52794L2.21563 6.8297C2.14109 6.98499 2.07189 7.14486 2.00818 7.30877C1.92064 7.53398 1.66711 7.64559 1.4419 7.55805C1.21669 7.47052 1.10508 7.21699 1.19262 6.99178C1.66305 5.78146 2.40553 4.75019 3.3825 4.06612C5.1861 2.80322 7.42753 2.63199 9.32224 3.4141Z" fill="#00A925"/>
</g>
</g>
</g>
</svg>
